<svg
	xmlns="http://www.w3.org/2000/svg" width="912" height="288" viewBox="0 0 612 192" style="background-color:#0d1117;font-family:monospace;">
	<style>
    text {
		font-family:
		ui-monospace,
		SFMono-Regular,
		SF Mono,
		Menlo,
		Consolas,
		Liberation Mono,
		monospace;
		font-size: 9px;
		font-weight: 600;
	}    
	.code-key { fill:#9CDCFE; font-weight:600; }
    .code-string { fill:#D69D85; }
    .code-number { fill:#B5CEA8; }
    .code-boolean { fill:#569CD6; }
    .code-null { fill:#569CD6; }
    .code-brace { fill:#D4D4D4; font-weight:600; } 
    </style>
	<!-- ASCII Art -->
	<text x="0" y="10" fill="#6A7584">1</text>
	<text x="6" y="10" fill="#6D7988">0</text>
	<text x="12" y="10" fill="#6F7A89">0</text>
	<text x="18" y="10" fill="#727F8D">1</text>
	<text x="24" y="10" fill="#778592">1</text>
	<text x="30" y="10" fill="#788693">1</text>
	<text x="36" y="10" fill="#798693">0</text>
	<text x="42" y="10" fill="#7A8795">1</text>
	<text x="48" y="10" fill="#7F8C99">0</text>
	<text x="54" y="10" fill="#838F9D">1</text>
	<text x="60" y="10" fill="#838E9C">0</text>
	<text x="66" y="10" fill="#7D8997">0</text>
	<text x="72" y="10" fill="#758290">1</text>
	<text x="78" y="10" fill="#768391">0</text>
	<text x="84" y="10" fill="#7A8795">1</text>
	<text x="90" y="10" fill="#7F8C99">1</text>
	<text x="96" y="10" fill="#8794A2">0</text>
	<text x="102" y="10" fill="#8C98A7">1</text>
	<text x="108" y="10" fill="#8894A2">0</text>
	<text x="114" y="10" fill="#848F9D">0</text>
	<text x="120" y="10" fill="#828E9C">0</text>
	<text x="126" y="10" fill="#828E9C">1</text>
	<text x="132" y="10" fill="#848F9D">1</text>
	<text x="138" y="10" fill="#838D9B">0</text>
	<text x="144" y="10" fill="#7B8694">0</text>
	<text x="150" y="10" fill="#707C8A">1</text>
	<text x="0" y="22" fill="#697483">0</text>
	<text x="6" y="22" fill="#6A7685">1</text>
	<text x="12" y="22" fill="#6E7A88">1</text>
	<text x="18" y="22" fill="#788593">1</text>
	<text x="24" y="22" fill="#798794">0</text>
	<text x="30" y="22" fill="#778592">0</text>
	<text x="36" y="22" fill="#74818F">0</text>
	<text x="42" y="22" fill="#727F8D">0</text>
	<text x="48" y="22" fill="#758390">0</text>
	<text x="54" y="22" fill="#7E8C9A">0</text>
	<text x="60" y="22" fill="#838F9E">1</text>
	<text x="66" y="22" fill="#828E9C">1</text>
	<text x="72" y="22" fill="#7E8A98">1</text>
	<text x="78" y="22" fill="#8693A1">1</text>
	<text x="84" y="22" fill="#8C9AA8">1</text>
	<text x="90" y="22" fill="#919EAD">1</text>
	<text x="96" y="22" fill="#92A0AF">0</text>
	<text x="102" y="22" fill="#93A0B0">0</text>
	<text x="108" y="22" fill="#8E9BAA">1</text>
	<text x="114" y="22" fill="#8A96A4">1</text>
	<text x="120" y="22" fill="#8894A2">1</text>
	<text x="126" y="22" fill="#85919F">0</text>
	<text x="132" y="22" fill="#8691A0">0</text>
	<text x="138" y="22" fill="#85909E">1</text>
	<text x="144" y="22" fill="#828C99">0</text>
	<text x="150" y="22" fill="#7D8895">1</text>
	<text x="0" y="34" fill="#717D8B">0</text>
	<text x="6" y="34" fill="#788592">1</text>
	<text x="12" y="34" fill="#808C99">0</text>
	<text x="18" y="34" fill="#818D9B">1</text>
	<text x="24" y="34" fill="#7A8795">1</text>
	<text x="30" y="34" fill="#74818F">0</text>
	<text x="36" y="34" fill="#727E8C">0</text>
	<text x="42" y="34" fill="#74808F">0</text>
	<text x="48" y="34" fill="#707C89">0</text>
	<text x="54" y="34" fill="#505861">0</text>
	<text x="60" y="34" fill="#393F45">1</text>
	<text x="66" y="34" fill="#393E43">1</text>
	<text x="72" y="34" fill="#32363A">0</text>
	<text x="78" y="34" fill="#393E44">1</text>
	<text x="84" y="34" fill="#4B515A">1</text>
	<text x="90" y="34" fill="#727C88">1</text>
	<text x="96" y="34" fill="#8C99A8">1</text>
	<text x="102" y="34" fill="#929FAF">0</text>
	<text x="108" y="34" fill="#8B97A6">0</text>
	<text x="114" y="34" fill="#8B97A5">0</text>
	<text x="120" y="34" fill="#8D99A7">1</text>
	<text x="126" y="34" fill="#8995A3">0</text>
	<text x="132" y="34" fill="#848F9D">1</text>
	<text x="138" y="34" fill="#858F9D">0</text>
	<text x="144" y="34" fill="#838D9B">1</text>
	<text x="150" y="34" fill="#7F8997">1</text>
	<text x="0" y="46" fill="#717F8C">0</text>
	<text x="6" y="46" fill="#7A8795">0</text>
	<text x="12" y="46" fill="#828E9C">1</text>
	<text x="18" y="46" fill="#828E9C">0</text>
	<text x="24" y="46" fill="#7D8997">1</text>
	<text x="30" y="46" fill="#74808E">1</text>
	<text x="36" y="46" fill="#6C7785">0</text>
	<text x="42" y="46" fill="#4F5763">1</text>
	<text x="48" y="46" fill="#24282D">0</text>
	<text x="54" y="46" fill="#0C0E0E">1</text>
	<text x="60" y="46" fill="#0D0F10">1</text>
	<text x="66" y="46" fill="#0D0F10">0</text>
	<text x="72" y="46" fill="#121312">0</text>
	<text x="78" y="46" fill="#131212">1</text>
	<text x="84" y="46" fill="#131314">1</text>
	<text x="90" y="46" fill="#151719">0</text>
	<text x="96" y="46" fill="#2D3035">0</text>
	<text x="102" y="46" fill="#616973">0</text>
	<text x="108" y="46" fill="#8894A3">1</text>
	<text x="114" y="46" fill="#85919E">0</text>
	<text x="120" y="46" fill="#828E9B">1</text>
	<text x="126" y="46" fill="#818C99">1</text>
	<text x="132" y="46" fill="#808A99">0</text>
	<text x="138" y="46" fill="#7E8997">0</text>
	<text x="144" y="46" fill="#798492">1</text>
	<text x="150" y="46" fill="#75818F">1</text>
	<text x="0" y="58" fill="#6E7B89">0</text>
	<text x="6" y="58" fill="#758390">1</text>
	<text x="12" y="58" fill="#7D8997">1</text>
	<text x="18" y="58" fill="#808B99">0</text>
	<text x="24" y="58" fill="#838E9C">0</text>
	<text x="30" y="58" fill="#808C9A">1</text>
	<text x="36" y="58" fill="#4E5560">0</text>
	<text x="42" y="58" fill="#111416">1</text>
	<text x="48" y="58" fill="#0D0E0E">1</text>
	<text x="54" y="58" fill="#0C0E0F">1</text>
	<text x="60" y="58" fill="#191615">0</text>
	<text x="66" y="58" fill="#211B1A">1</text>
	<text x="72" y="58" fill="#211B1A">0</text>
	<text x="78" y="58" fill="#1E1A1A">1</text>
	<text x="84" y="58" fill="#201919">1</text>
	<text x="90" y="58" fill="#29201F">0</text>
	<text x="96" y="58" fill="#181414">0</text>
	<text x="102" y="58" fill="#1D1D1F">0</text>
	<text x="108" y="58" fill="#7B8794">1</text>
	<text x="114" y="58" fill="#8A96A4">0</text>
	<text x="120" y="58" fill="#84909E">1</text>
	<text x="126" y="58" fill="#808C9A">1</text>
	<text x="132" y="58" fill="#7E8A98">0</text>
	<text x="138" y="58" fill="#798593">0</text>
	<text x="144" y="58" fill="#778290">0</text>
	<text x="150" y="58" fill="#778290">1</text>
	<text x="0" y="70" fill="#7A8795">1</text>
	<text x="6" y="70" fill="#7B8896">0</text>
	<text x="12" y="70" fill="#7C8996">0</text>
	<text x="18" y="70" fill="#7D8997">0</text>
	<text x="24" y="70" fill="#838F9D">1</text>
	<text x="30" y="70" fill="#8C99A8">1</text>
	<text x="36" y="70" fill="#575E68">1</text>
	<text x="42" y="70" fill="#101010">0</text>
	<text x="48" y="70" fill="#12100E">1</text>
	<text x="54" y="70" fill="#473026">0</text>
	<text x="60" y="70" fill="#6F4838">1</text>
	<text x="66" y="70" fill="#795545">0</text>
	<text x="72" y="70" fill="#77584C">1</text>
	<text x="78" y="70" fill="#896656">1</text>
	<text x="84" y="70" fill="#9A7564">0</text>
	<text x="90" y="70" fill="#937060">0</text>
	<text x="96" y="70" fill="#715040">0</text>
	<text x="102" y="70" fill="#4F5258">0</text>
	<text x="108" y="70" fill="#8996A5">0</text>
	<text x="114" y="70" fill="#909CAB">0</text>
	<text x="120" y="70" fill="#8C98A7">0</text>
	<text x="126" y="70" fill="#8B97A5">0</text>
	<text x="132" y="70" fill="#8995A3">0</text>
	<text x="138" y="70" fill="#838F9D">0</text>
	<text x="144" y="70" fill="#828C9B">1</text>
	<text x="150" y="70" fill="#808A98">0</text>
	<text x="0" y="82" fill="#818D9B">1</text>
	<text x="6" y="82" fill="#7D8A98">1</text>
	<text x="12" y="82" fill="#798794">1</text>
	<text x="18" y="82" fill="#788694">1</text>
	<text x="24" y="82" fill="#828E9C">1</text>
	<text x="30" y="82" fill="#8B98A7">1</text>
	<text x="36" y="82" fill="#92A1B1">1</text>
	<text x="42" y="82" fill="#7F7C82">0</text>
	<text x="48" y="82" fill="#734838">1</text>
	<text x="54" y="82" fill="#855940">1</text>
	<text x="60" y="82" fill="#A2735A">1</text>
	<text x="66" y="82" fill="#9F7666">0</text>
	<text x="72" y="82" fill="#AD7E6A">1</text>
	<text x="78" y="82" fill="#C89074">0</text>
	<text x="84" y="82" fill="#C9967C">0</text>
	<text x="90" y="82" fill="#A98170">1</text>
	<text x="96" y="82" fill="#B28C78">0</text>
	<text x="102" y="82" fill="#89919D">1</text>
	<text x="108" y="82" fill="#8A96A5">1</text>
	<text x="114" y="82" fill="#8E99A8">0</text>
	<text x="120" y="82" fill="#8C99A7">1</text>
	<text x="126" y="82" fill="#8A96A4">0</text>
	<text x="132" y="82" fill="#8A96A4">1</text>
	<text x="138" y="82" fill="#8995A3">1</text>
	<text x="144" y="82" fill="#86919F">1</text>
	<text x="150" y="82" fill="#828C99">0</text>
	<text x="0" y="94" fill="#74818F">1</text>
	<text x="6" y="94" fill="#72808D">0</text>
	<text x="12" y="94" fill="#707E8B">0</text>
	<text x="18" y="94" fill="#717E8C">0</text>
	<text x="24" y="94" fill="#7D8A97">1</text>
	<text x="30" y="94" fill="#8894A2">0</text>
	<text x="36" y="94" fill="#8D9AA9">0</text>
	<text x="42" y="94" fill="#95A3B2">1</text>
	<text x="48" y="94" fill="#958988">0</text>
	<text x="54" y="94" fill="#855D4A">0</text>
	<text x="60" y="94" fill="#B68368">0</text>
	<text x="66" y="94" fill="#D7A48E">0</text>
	<text x="72" y="94" fill="#BC8671">0</text>
	<text x="78" y="94" fill="#C59481">1</text>
	<text x="84" y="94" fill="#D19E89">0</text>
	<text x="90" y="94" fill="#DCA489">0</text>
	<text x="96" y="94" fill="#BE9B89">0</text>
	<text x="102" y="94" fill="#828C9A">0</text>
	<text x="108" y="94" fill="#838F9D">1</text>
	<text x="114" y="94" fill="#85909F">0</text>
	<text x="120" y="94" fill="#8C97A6">0</text>
	<text x="126" y="94" fill="#8C98A6">0</text>
	<text x="132" y="94" fill="#8C98A6">0</text>
	<text x="138" y="94" fill="#8A96A4">0</text>
	<text x="144" y="94" fill="#87919E">0</text>
	<text x="150" y="94" fill="#808A97">0</text>
	<text x="0" y="106" fill="#687482">1</text>
	<text x="6" y="106" fill="#697484">0</text>
	<text x="12" y="106" fill="#6F7B89">0</text>
	<text x="18" y="106" fill="#788492">1</text>
	<text x="24" y="106" fill="#808C9A">0</text>
	<text x="30" y="106" fill="#8793A1">1</text>
	<text x="36" y="106" fill="#8B98A7">1</text>
	<text x="42" y="106" fill="#8B9BAB">1</text>
	<text x="48" y="106" fill="#8893A2">0</text>
	<text x="54" y="106" fill="#7B594C">0</text>
	<text x="60" y="106" fill="#976049">0</text>
	<text x="66" y="106" fill="#AF7E65">0</text>
	<text x="72" y="106" fill="#BA8574">0</text>
	<text x="78" y="106" fill="#D39A8F">0</text>
	<text x="84" y="106" fill="#CF9786">0</text>
	<text x="90" y="106" fill="#B1907F">0</text>
	<text x="96" y="106" fill="#878D94">0</text>
	<text x="102" y="106" fill="#7D8A9A">1</text>
	<text x="108" y="106" fill="#7E8A98">1</text>
	<text x="114" y="106" fill="#818B9A">0</text>
	<text x="120" y="106" fill="#8792A0">0</text>
	<text x="126" y="106" fill="#8B97A5">0</text>
	<text x="132" y="106" fill="#8895A2">1</text>
	<text x="138" y="106" fill="#808C9A">0</text>
	<text x="144" y="106" fill="#7A8694">1</text>
	<text x="150" y="106" fill="#75818F">0</text>
	<text x="0" y="118" fill="#5C6776">0</text>
	<text x="6" y="118" fill="#616D7C">0</text>
	<text x="12" y="118" fill="#6A7584">0</text>
	<text x="18" y="118" fill="#758290">0</text>
	<text x="24" y="118" fill="#7C8C9A">0</text>
	<text x="30" y="118" fill="#8496A4">1</text>
	<text x="36" y="118" fill="#8892A0">1</text>
	<text x="42" y="118" fill="#8B4C5A">1</text>
	<text x="48" y="118" fill="#761E23">0</text>
	<text x="54" y="118" fill="#88543E">0</text>
	<text x="60" y="118" fill="#99654B">1</text>
	<text x="66" y="118" fill="#966149">0</text>
	<text x="72" y="118" fill="#B07A62">1</text>
	<text x="78" y="118" fill="#CB957B">1</text>
	<text x="84" y="118" fill="#B88266">0</text>
	<text x="90" y="118" fill="#993640">1</text>
	<text x="96" y="118" fill="#966C7D">1</text>
	<text x="102" y="118" fill="#848493">1</text>
	<text x="108" y="118" fill="#7C8B99">1</text>
	<text x="114" y="118" fill="#7A8E9B">0</text>
	<text x="120" y="118" fill="#7B8D9A">0</text>
	<text x="126" y="118" fill="#7C8B98">1</text>
	<text x="132" y="118" fill="#788693">0</text>
	<text x="138" y="118" fill="#758290">0</text>
	<text x="144" y="118" fill="#727E8C">1</text>
	<text x="150" y="118" fill="#6F7B89">0</text>
	<text x="0" y="130" fill="#545F6D">1</text>
	<text x="6" y="130" fill="#576371">1</text>
	<text x="12" y="130" fill="#596B79">1</text>
	<text x="18" y="130" fill="#6B7381">0</text>
	<text x="24" y="130" fill="#826C7B">1</text>
	<text x="30" y="130" fill="#A34E5F">1</text>
	<text x="36" y="130" fill="#A32432">1</text>
	<text x="42" y="130" fill="#B0101F">1</text>
	<text x="48" y="130" fill="#B40F1D">0</text>
	<text x="54" y="130" fill="#AE2429">1</text>
	<text x="60" y="130" fill="#AB5043">1</text>
	<text x="66" y="130" fill="#BF755D">0</text>
	<text x="72" y="130" fill="#CC9576">1</text>
	<text x="78" y="130" fill="#CD9877">1</text>
	<text x="84" y="130" fill="#C15348">1</text>
	<text x="90" y="130" fill="#CD1628">1</text>
	<text x="96" y="130" fill="#CD1729">0</text>
	<text x="102" y="130" fill="#C4283A">0</text>
	<text x="108" y="130" fill="#B63B4D">1</text>
	<text x="114" y="130" fill="#A45768">1</text>
	<text x="120" y="130" fill="#8F7382">1</text>
	<text x="126" y="130" fill="#7C8896">0</text>
	<text x="132" y="130" fill="#768593">0</text>
	<text x="138" y="130" fill="#737F8D">1</text>
	<text x="144" y="130" fill="#707C8A">1</text>
	<text x="150" y="130" fill="#707C8A">1</text>
	<text x="0" y="142" fill="#586774">0</text>
	<text x="6" y="142" fill="#5B6371">0</text>
	<text x="12" y="142" fill="#7C3F4E">1</text>
	<text x="18" y="142" fill="#AE2133">1</text>
	<text x="24" y="142" fill="#C71529">1</text>
	<text x="30" y="142" fill="#D01126">1</text>
	<text x="36" y="142" fill="#CA1226">0</text>
	<text x="42" y="142" fill="#C11325">0</text>
	<text x="48" y="142" fill="#C61527">0</text>
	<text x="54" y="142" fill="#C81126">0</text>
	<text x="60" y="142" fill="#BA0E21">1</text>
	<text x="66" y="142" fill="#C21728">1</text>
	<text x="72" y="142" fill="#D24047">1</text>
	<text x="78" y="142" fill="#D24B4D">1</text>
	<text x="84" y="142" fill="#D0172B">1</text>
	<text x="90" y="142" fill="#D1192D">0</text>
	<text x="96" y="142" fill="#D0182C">0</text>
	<text x="102" y="142" fill="#D5162C">0</text>
	<text x="108" y="142" fill="#DA1329">1</text>
	<text x="114" y="142" fill="#D9162B">1</text>
	<text x="120" y="142" fill="#D4192D">0</text>
	<text x="126" y="142" fill="#B13E50">0</text>
	<text x="132" y="142" fill="#777C8A">0</text>
	<text x="138" y="142" fill="#6F7D8B">0</text>
	<text x="144" y="142" fill="#6D7987">1</text>
	<text x="150" y="142" fill="#6A7684">0</text>
	<text x="0" y="154" fill="#67616F">1</text>
	<text x="6" y="154" fill="#8C2432">1</text>
	<text x="12" y="154" fill="#C11022">0</text>
	<text x="18" y="154" fill="#CB1428">1</text>
	<text x="24" y="154" fill="#CC152A">0</text>
	<text x="30" y="154" fill="#D3162B">0</text>
	<text x="36" y="154" fill="#D6182E">1</text>
	<text x="42" y="154" fill="#D5182D">1</text>
	<text x="48" y="154" fill="#D3172D">1</text>
	<text x="54" y="154" fill="#D7182E">0</text>
	<text x="60" y="154" fill="#D8182E">1</text>
	<text x="66" y="154" fill="#DA182F">0</text>
	<text x="72" y="154" fill="#CF1228">0</text>
	<text x="78" y="154" fill="#D7182F">0</text>
	<text x="84" y="154" fill="#DA1C33">0</text>
	<text x="90" y="154" fill="#D81A31">1</text>
	<text x="96" y="154" fill="#DA1A2F">1</text>
	<text x="102" y="154" fill="#D82438">1</text>
	<text x="108" y="154" fill="#CB5A64">0</text>
	<text x="114" y="154" fill="#D92034">1</text>
	<text x="120" y="154" fill="#D7162C">1</text>
	<text x="126" y="154" fill="#D51226">0</text>
	<text x="132" y="154" fill="#A63C4D">0</text>
	<text x="138" y="154" fill="#677684">1</text>
	<text x="144" y="154" fill="#636F7D">1</text>
	<text x="150" y="154" fill="#606C7A">0</text>
	<text x="0" y="166" fill="#7F1E2C">1</text>
	<text x="6" y="166" fill="#A40919">1</text>
	<text x="12" y="166" fill="#BC1021">1</text>
	<text x="18" y="166" fill="#C31225">0</text>
	<text x="24" y="166" fill="#C91427">0</text>
	<text x="30" y="166" fill="#D3162C">0</text>
	<text x="36" y="166" fill="#CF152A">1</text>
	<text x="42" y="166" fill="#D6182E">0</text>
	<text x="48" y="166" fill="#D4172D">1</text>
	<text x="54" y="166" fill="#D6182E">0</text>
	<text x="60" y="166" fill="#D81930">1</text>
	<text x="66" y="166" fill="#D91A32">0</text>
	<text x="72" y="166" fill="#D71A31">0</text>
	<text x="78" y="166" fill="#D81B31">0</text>
	<text x="84" y="166" fill="#DA1B32">1</text>
	<text x="90" y="166" fill="#D8182F">1</text>
	<text x="96" y="166" fill="#DA1A30">1</text>
	<text x="102" y="166" fill="#D92338">1</text>
	<text x="108" y="166" fill="#C27C7C">0</text>
	<text x="114" y="166" fill="#C45C67">1</text>
	<text x="120" y="166" fill="#D7162D">1</text>
	<text x="126" y="166" fill="#CE1429">0</text>
	<text x="132" y="166" fill="#C91A2D">1</text>
	<text x="138" y="166" fill="#6B5967">1</text>
	<text x="144" y="166" fill="#576472">1</text>
	<text x="150" y="166" fill="#56606D">0</text>
	<text x="0" y="178" fill="#870A15">1</text>
	<text x="6" y="178" fill="#A80B1B">0</text>
	<text x="12" y="178" fill="#BD0D1E">1</text>
	<text x="18" y="178" fill="#BD0F20">0</text>
	<text x="24" y="178" fill="#B50F20">1</text>
	<text x="30" y="178" fill="#BB1022">1</text>
	<text x="36" y="178" fill="#BB0E1E">1</text>
	<text x="42" y="178" fill="#BF1122">1</text>
	<text x="48" y="178" fill="#CE162A">1</text>
	<text x="54" y="178" fill="#D2182E">1</text>
	<text x="60" y="178" fill="#D71A31">0</text>
	<text x="66" y="178" fill="#D81931">1</text>
	<text x="72" y="178" fill="#D8192F">1</text>
	<text x="78" y="178" fill="#D9192F">0</text>
	<text x="84" y="178" fill="#D5172E">1</text>
	<text x="90" y="178" fill="#D5172E">1</text>
	<text x="96" y="178" fill="#D8192F">1</text>
	<text x="102" y="178" fill="#D91A2F">0</text>
	<text x="108" y="178" fill="#D14C5B">1</text>
	<text x="114" y="178" fill="#CA5763">1</text>
	<text x="120" y="178" fill="#D4162D">1</text>
	<text x="126" y="178" fill="#CA1227">1</text>
	<text x="132" y="178" fill="#D31428">1</text>
	<text x="138" y="178" fill="#8B3B4A">1</text>
	<text x="144" y="178" fill="#4E606B">0</text>
	<text x="150" y="178" fill="#4F5965">0</text>
	<text x="0" y="190" fill="#860914">0</text>
	<text x="6" y="190" fill="#9F0917">1</text>
	<text x="12" y="190" fill="#B90D1F">0</text>
	<text x="18" y="190" fill="#C10E20">0</text>
	<text x="24" y="190" fill="#C11022">1</text>
	<text x="30" y="190" fill="#A60C1A">1</text>
	<text x="36" y="190" fill="#A30815">0</text>
	<text x="42" y="190" fill="#A40B18">1</text>
	<text x="48" y="190" fill="#BD1121">1</text>
	<text x="54" y="190" fill="#C51223">0</text>
	<text x="60" y="190" fill="#CA1327">1</text>
	<text x="66" y="190" fill="#D7182E">1</text>
	<text x="72" y="190" fill="#D6182E">0</text>
	<text x="78" y="190" fill="#D7192F">0</text>
	<text x="84" y="190" fill="#D1152B">0</text>
	<text x="90" y="190" fill="#CE1328">1</text>
	<text x="96" y="190" fill="#D1162B">1</text>
	<text x="102" y="190" fill="#D01A2F">0</text>
	<text x="108" y="190" fill="#CE263B">0</text>
	<text x="114" y="190" fill="#D12136">1</text>
	<text x="120" y="190" fill="#D1162B">0</text>
	<text x="126" y="190" fill="#CA1226">1</text>
	<text x="132" y="190" fill="#D3152A">1</text>
	<text x="138" y="190" fill="#AF2435">0</text>
	<text x="144" y="190" fill="#505762">1</text>
	<text x="150" y="190" fill="#49545F">1</text>
	<!-- Code -->
	<text x="168" y="15" class="code-brace">{</text>
	<text x="180" y="34" class="code-key">"name"</text>
	<text x="216" y="34" class="code-brace">:</text>
	<text x="228" y="34" class="code-string">"Mohamed Khettab"</text>
	<text x="320" y="34" class="code-brace">,</text>
	<text x="180" y="52" class="code-key">"title"</text>
	<text x="222" y="52" class="code-brace">:</text>
	<text x="234" y="52" class="code-string">"Technology Enthusiast"</text>
	<text x="359" y="52" class="code-brace">,</text>
	<text x="180" y="71" class="code-key">"skills"</text>
	<text x="228" y="71" class="code-brace">:</text>
	<text x="240" y="71" class="code-string">
    "Programming, full-stack development, DevOps, engineering, AI"
  </text>
	<text x="576" y="71" class="code-brace">,</text>
	<text x="180" y="90" class="code-key">"languages.code"</text>
	<text x="276" y="90" class="code-brace">:</text>
	<text x="288" y="90" class="code-string">
    "Python, Typescript, Go, C++, Svelte, Swift, many more..."
  </text>
	<text x="602" y="90" class="code-brace">,</text>
	<text x="180" y="108" class="code-key">"learning"</text>
	<text x="240" y="108" class="code-brace">:</text>
	<text x="252" y="108" class="code-string">
    "AI, Cybersecurity, Cloud Computing"
  </text>
	<text x="447" y="108" class="code-brace">,</text>
	<a href="https://mwkhettab.vercel.app" target="_blank">
		<text x="180" y="127" class="code-key">"portfolio"</text>
		<text x="246" y="127" class="code-brace">:</text>
		<text x="258" y="127" class="code-string">
    "https://mwkhettab.vercel.app"
  </text>
	</a>
	<text x="420" y="127" class="code-brace">,</text>
	<text x="180" y="147" class="code-key">"contact"</text>
	<text x="234" y="147" class="code-brace">:</text>
	<text x="246" y="147" class="code-string">
    "mwkhettab@gmail.com"
  </text>
	<text x="360" y="147" class="code-brace">,</text>
	<text x="180" y="164" class="code-key">"interests"</text>
	<text x="246" y="164" class="code-brace">:</text>
	<text x="258" y="164" class="code-string">
    "Tech, AI, Open-source"
  </text>
	<text x="382" y="164" class="code-brace">,</text>
	<text x="168" y="183" class="code-brace">}</text>
</svg>

